<?xml version="1.0"?><svg version="1.2" baseProfile="tiny-ps" viewBox="0 0 300 300" xmlns="http://www.w3.org/2000/svg" xmlns:xlink="http://www.w3.org/1999/xlink"><title>logo Pechmeze svg tiny</title><g><g fill="#fff" transform="matrix(.1 0 0 -.1 0 300)"><path d="M0 1500V0h3000v3000H0V1500z"/></g><g fill="#e3e4e5" transform="matrix(.1 0 0 -.1 0 300)"><path d="M320 1621v-101h50v47l42 6 43 6 17 21 18 22v46l-19 23-18 23-67 4-66 4v-101zm105 24v-20l-27-3-28-3v52l28-3 27-3v-20zm189 62c-3-8-4-52-2-98l3-84 78-3 77-3v51H670v30h91l-3 23-3 22-42 3-43 3v19h100v50H619l-5-13zm326 1c-13-7-30-25-38-38l-13-25 5-39 4-39 20-20 20-20 49-4 48-5 25 21 25 21-18 14-18 14-30-11-30-12-17 11-17 11v66l17 11 17 11 30-12 30-11 18 13 18 14-16 17-17 16-43 5-44 4-25-13zm265-1c-3-7-5-52-3-98l3-84 28-3 27-3v71h70v-71l28 3 27 3v190l-27 3-28 3v-71h-69l-3 33-3 32-23 3-22 3-5-14zm325-87v-100h50v85l21-32 21-33h28l19 32 20 31 3-39 3-39h50v190l-22 3-21 3-29-50c-15-28-31-51-35-51-3 0-20 23-37 50l-31 50h-40v-100zm360 0v-100h150v50h-102l4 13 5 12 42 3 42 3-3 22-3 22-42 3-43 3v19h100v50h-150v-100zm277 93c-4-3-7-14-7-24v-18l45-3 45-3-45-52-45-51v-43l88 3 87 3v40l-48 3-48 3 45 54 46 53v42h-78c-43 0-82-3-85-7zm293-93v-100h150v50h-90v30h81l-3 23-3 22-37 3-38 3v19h90v50h-150v-100zm-290-235v-65h92l-4 13-5 12-31 3-32 3v99h-20v-65zm133 17c-12-26-25-55-28-65l-7-17h30l6 15 5 15h54l13-17 12-18 8 7 7 8-29 60-28 60h-11c-5 0-20-21-32-48zm41-7 5-15h-28l5 15c4 8 7 15 9 15s5-7 9-15zm66 51c0-5 20-67 32-98l10-28h28v13c1 6 7 26 14 42l13 30 12-42 12-43h26l17 53c20 62 20 71 8 75l-10 3-14-42-14-43-17 42c-9 23-21 42-25 42-5 0-15-19-22-41l-14-42-18 42c-9 22-22 41-28 41-5 0-10-2-10-4z"/></g><g fill="#c5c7c9" transform="matrix(.1 0 0 -.1 0 300)"><path d="M324 1707c-3-8-4-52-2-98l3-84h40l3 23 3 22h20c11 0 35 6 53 14l33 14 7 25 6 26-10 25-9 25-38 10c-21 6-53 11-71 11h-33l-5-13zm109-49c2-7 2-19-1-25l-4-13h-58v50h58l5-12zm191 49c-3-8-4-52-2-98l3-84h140v40l-47 3-48 3v29h80v40h-80v30h91l6 16 6 16-14 9-14 9H629l-5-13zm330 3c-12-4-31-21-43-36l-21-27v-55l26-31 25-30 35-7 34-6 31 12 30 13-3 16-4 16-19-1c-11-1-28-5-37-9l-17-7-26 26c-31 31-31 41-1 71l25 25 27-10c32-13 54-7 54 14v14l-31 11c-37 13-56 13-85 1zm258 2-13-9 3-89 3-89h50l3 38 3 37h68l3-37 3-38 23-3 22-3v190l-9 5c-5 4-16 3-25 0l-16-6v-68h-70v68l-16 6c-19 7-16 7-32-2zm325 1c-4-3-7-49-7-100v-94l23 3 22 3 5 43 5 43 19-35c11-20 24-36 31-36h11l25 43 24 42 5-50 5-50 18-3 18-4-3 99-3 98h-30l-31-48c-17-26-34-50-36-53-3-3-18 17-33 43-34 58-52 73-68 56zm357-6c-2-7-4-52-2-98l3-84h140v40l-47 3-48 3v28l42 3 43 3 3 18 3 17h-91v29l48 3 47 3v40l-68 3-67 3-6-14zm277 4-14-9 6-16 6-16h41c22 0 40-3 40-6s-20-29-45-57l-45-52 2-15 3-15h160l3 22 3 22-46 3-45 3 45 55 45 55-2 15-3 15-70 3-70 2-14-9zm293-4c-2-7-4-52-2-98l3-84h140l3 23 3 22h-101v30h90v40h-90v29l48 3 47 3v40l-68 3-67 3-6-14zm-159-307c-14-27-25-57-25-67l1-18 13 18 13 17h61l6-16 6-15 10 6 10 6-30 60c-17 32-32 59-35 59s-16-22-30-50zm45-16v-14h-30v13c0 8 3 17 6 20 10 9 24-2 24-19zm68 61c-8-8 36-120 47-120 4 0 15 20 23 45l15 44 14-39c7-22 18-44 23-49l10-10 14 35c7 19 17 50 21 69l7 35-11-10c-6-6-17-28-24-50l-14-40-13 43-13 42h-23l-15-42-16-43-13 40c-14 44-23 58-32 50zm-246-62 3-58 38-3 37-3v21h-60v100h-21l3-57z"/></g><g fill="#8b8f92" transform="matrix(.1 0 0 -.1 0 300)"><path d="m950 1703-35-18-13-28-13-28 6-28 6-28 24-23 25-23 44-1 45-1 18 17 17 18-12 12-12 12-25-14-25-13-25 11-24 11-7 25-6 24 11 20c6 12 21 24 32 27l21 7 24-13 24-13 12 12 12 12-14 14c-8 8-28 17-45 20l-30 6-35-17zm-630-83v-90h50v50h77l18 20 18 19v52l-18 19-18 20H320v-90zm101 50 19-11v-29l-26-10c-33-13-44-6-44 31v29h16c8 0 24-5 35-10zm199-50v-90h150v30H670v40h80v40h-80v40h90v30H620v-90zm590 0v-90h40v71l43-3 42-3 3-32 3-33h39v180h-39l-3-32-3-33-42-3-43-3v71h-40v-90zm320 0v-90h39l3 48 3 47 23-37 24-38h26l24 38 23 37 3-47 3-48h39v180h-39l-28-50c-15-27-31-50-34-50-4 0-21 23-39 50l-32 50h-38v-90zm360 0v-90h150v30h-100v40h80v40h-80v40h90v30h-140v-90zm280 75v-15h45c25 0 45-2 45-5s-22-33-50-66c-27-33-50-64-50-70v-9h170v29l-51 3-52 3 52 61c28 34 51 67 51 73v11h-160v-15zm290-75v-90h150v30h-100v40h80v40h-80v40h100v30h-150v-90zm-290-235v-55l43 2 42 1-32 4-33 4v99h-20v-55zm135 8c-11-26-22-52-24-58-2-5 5-2 16 8l20 17h51l6-16c4-9 9-15 11-12 3 3-4 28-16 56l-22 52h-22l-20-47zm48-3 5-20h-48l12 25c12 27 23 26 31-5zm67 49c0-3 7-29 16-58l15-52 11 3c7 3 16 18 22 35 6 18 14 35 18 38l7 7 12-41c7-23 16-41 21-41 9 0 28 40 42 88l7 22h-18l-13-46-13-47-17 44c-10 24-22 45-27 46l-9 3-15-47-15-48-13 40c-12 35-31 69-31 54z"/></g><g fill="#595f63" transform="matrix(.1 0 0 -.1 0 300)"><path d="M320 1620v-90h39l3 23 3 22 42 6c23 3 48 11 57 18l16 13v67l-22 15-22 16H320v-90zm104 54 16-6v-48l-25-6c-14-3-32-4-40 0l-15 5v24c0 13 3 27 7 30 8 9 36 9 57 1zm196-54v-90h140v30H659l3 23 3 22 43 3 42 3v29h-90v40h100v30H620v-90zm305 65-25-24v-82l25-24 24-25h41c23 0 50 5 61 11l20 10-11 14-12 15-18-10c-10-6-27-10-38-10h-19l-16 18-17 19v50l18 16c21 19 45 21 72 7l18-10 12 15 11 14-20 10c-11 6-38 11-61 11h-41l-24-25zm285-65v-90h39l3 38 3 37h80l3-37 3-38h39v180h-40v-70h-90v70h-40v-90zm320 0v-90h39l3 53 3 52 24-42 25-43h26l22 43 23 42 3-52 3-53h39v180h-35l-33-55c-18-30-35-55-37-55s-18 25-35 55l-31 55h-39v-90zm360 0v-90h150v29l-52 3-53 3v40l43 3 43 3-4 12-4 12-42 3-42 3 3 17 3 17 48 3 47 3v29h-140v-90zm280 75v-15h45c25 0 45-3 45-6 0-4-20-32-45-62s-45-61-45-68v-14h160v30h-50c-27 0-50 3-50 6 0 4 20 32 45 62s45 61 45 68v14h-150v-15zm290-75v-90h150v30h-100v50h80v30h-80v40h90v30h-140v-90zm-278-232-2-58 38 2 37 1-32 4-32 4-4 52-3 52-2-57zm138 33c-5-11-14-31-20-45l-9-25 14 6 15 5-6 9c-2 5 0 18 7 31l12 22 14-19c7-11 12-24 10-30-2-5 5-18 15-27 10-10 18-16 18-13 0 9-50 105-55 105-2 0-9-9-15-19zm106-1c3-14 11-32 16-40l9-15-7 25c-3 14-11 32-16 40l-9 15 7-25zm71 14c-4-4-7-11-7-16v-9l10 6 10 6v-12c0-7 3-10 6-6 3 3 2 13-3 22l-9 16-7-7zm80-1c-2-5-10-25-16-46l-13-37-10 6-11 7 4-12c9-25 24-11 41 38 15 45 17 65 5 44zm-107-72v-12l-10 6-10 6v-10c0-5 4-12 9-15l9-6 6 16c4 9 4 19 1 22s-5 0-5-7z"/></g><g fill="#1c242a" transform="matrix(.1 0 0 -.1 0 300)"><path d="M330 1620v-90h30v47l41 6 41 5 19 18 19 17v46l-26 20-27 21h-97v-90zm109 42 9-18-9-17-10-17h-69v70h69l10-18zm191-42v-90h130v30H660v50h90v20h-90v50h100v30H630v-90zm299 61-29-29v-64l29-29 29-29h32c33 0 70 15 70 29v9l-52-2-52-1-14 28-13 27 13 28 14 27 52-1 52-2v9c0 14-37 29-70 29h-32l-29-29zm281-61v-90h40v80h90v-80h40v180h-39l-3-37-3-38-42-3-43-3v81h-40v-90zm320 0v-90h40v53l1 52 17-21c9-11 24-31 33-44l16-24 28 42c15 23 32 42 36 42h9v-100h30v180h-29l-33-55-33-55-10 3c-5 2-23 27-40 55l-29 52h-36v-90zm370 0v-90h130v30h-100v50h90v20h-90v50h100v30h-130v-90zm270 76v-15l51-3 52-3-52-61c-28-34-51-67-51-73v-11h150v30h-102l51 64c28 35 51 69 51 75v11h-150v-14zm300-76v-90h130v30h-100v50h90v19l-42 3-43 3-3 23-3 22h101v30h-130v-90z"/></g></g></svg>
